<svg xmlns="http://www.w3.org/2000/svg" width="40" height="40" fill="none"><rect width="39" height="39" x=".5" y=".5" stroke="#111" stroke-opacity=".1" rx="9.5"/><path fill="#111" d="M30 13.924a8.55 8.55 0 0 1-2.363.647 4.076 4.076 0 0 0 1.804-2.266 8.191 8.191 0 0 1-2.6.992 4.099 4.099 0 0 0-7.093 2.804c0 .325.028.638.096.935-3.409-.166-6.425-1.8-8.452-4.289a4.128 4.128 0 0 0-.56 2.073c0 1.42.73 2.679 1.82 3.407a4.048 4.048 0 0 1-1.852-.505v.045a4.119 4.119 0 0 0 3.285 4.03 4.09 4.09 0 0 1-1.075.134 3.62 3.62 0 0 1-.776-.07c.531 1.624 2.039 2.818 3.831 2.857a8.238 8.238 0 0 1-5.084 1.748A7.67 7.67 0 0 1 10 26.41a11.543 11.543 0 0 0 6.29 1.84c7.545 0 11.67-6.25 11.67-11.668 0-.18-.006-.356-.015-.53A8.179 8.179 0 0 0 30 13.924Z"/></svg>